<svg xmlns="http://www.w3.org/2000/svg" viewBox="0 0 221.59 65.33"><defs><style>.cls-1{fill:#cc391b;}.cls-2{fill:#314d4b;}</style></defs><title>saham-bank-logo</title><g id="Calque_2" data-name="Calque 2"><g id="Calque_1-2" data-name="Calque 1"><path class="cls-1" d="M174.38,40.18c-1.64.16-3.19.27-4.63.33-4.94.24-8.17-.41-9.21-1.29.63.38-3.6-1.44,4.23-7.72a50,50,0,0,1,6-3.8c3.26-2.06,17-8.69,17.15-8.76-.76-.23-12.34,4.13-17.94,7l-1.32.65c-1.81.91-3.64,1.92-5.36,3-5.73,3.44-9.77,7.37-10.23,10.34a4.45,4.45,0,0,0,.71,3.43c2.48,3.44,9.67,2,17.08.18,1.33-.34,2.65-.69,3.89-1,4-1.07,7-1.6,6.78-1.9-.47-.76-4.75-.58-7.13-.35"/><path class="cls-1" d="M207.63,24.14c.94,3.18,1.54,5.53,1.28,7.15-1.36,8.44-8.84-1.05-8.86-.93-1.12,9.85-8.9,5.6-8.9,5.6-.73-.4-1.48-.37-1.66.06,0,0,2,5.41,6.48,5.16,2.85-.16,4.12-4.23,4.12-4.23.27-.89.84-1,1.25-.27l.51.65c1.73,2.16,3.76,3.31,5.37,3,3-.71,4.25-5.4,4.25-5.4.24-.91.75-1.21,1.13-.66l.39.45c1.53,1.78,3.26,2.89,4.35,2.78,2.45-.26,4.9-5.63,4.1-10.4C218.51,9.45,193.56,1.16,185.35,0c-1.48-.21,23,4.67,31.59,24.32,1.21,2.79-.26,8.15-4.22,4.59,0,0-5.23-5.26-5.09-4.78"/><path class="cls-1" d="M186.31,37.53A4.57,4.57,0,0,0,191.64,36c2.42-2.88,8.52-15,4.24-15.33.05,0-3.21-.31-7.66,4.82-2.59,1.85-14.65,23.76-5.38,26.13.09,0,3.19.9,6.49-10.08,0,0,.44-2.07-.51-.47-.16,0-9.64,13.66-3.63-4.66-.27,0,6.3-15.19,8.35-9.16.14,0,.81,2.84-7.23,10.26"/><path class="cls-1" d="M191.18,61.08C174.16,52.24,157,27,162.66,12.81c2.74-5.9,9.28-7.19,9.75,3,0,0-.3,1,.47.3-.17,0,7.8-14.38-3.39-11.51-7.4,1.9-9.38,11.39-9.33,11.39-4.62,23.54,9.22,36.07,21.1,42.69,12.31,6.58,22.67,7.25,21.28,6.32-.13-.07-7.78-2.18-11.36-3.91"/><path class="cls-2" d="M2.9,26.68A2.29,2.29,0,0,1,1.22,26a2.32,2.32,0,0,1-.7-1.7v-.86H2.65v.48a.94.94,0,0,0,.09.54.94.94,0,0,0,.54.09h7.27a1,1,0,0,0,.55-.09.94.94,0,0,0,.09-.54V22a.94.94,0,0,0-.09-.54,1,1,0,0,0-.55-.09H2.9a2.26,2.26,0,0,1-1.68-.71A2.33,2.33,0,0,1,.52,19v-2.7a2.32,2.32,0,0,1,.7-1.7,2.29,2.29,0,0,1,1.68-.7h8a2.41,2.41,0,0,1,2.4,2.4v.86H11.19v-.48a.94.94,0,0,0-.09-.54,1,1,0,0,0-.55-.09H3.28a.94.94,0,0,0-.54.09.94.94,0,0,0-.09.54v1.92a.94.94,0,0,0,.09.54.94.94,0,0,0,.54.09H11a2.3,2.3,0,0,1,1.69.71,2.34,2.34,0,0,1,.71,1.69v2.7a2.41,2.41,0,0,1-2.4,2.4Z"/><polygon class="cls-2" points="30.2 26.68 30.2 13.85 32.34 13.85 32.34 19.18 41.19 19.18 41.19 13.85 43.32 13.85 43.32 26.68 41.19 26.68 41.19 21.35 32.34 21.35 32.34 26.68 30.2 26.68"/><polygon class="cls-2" points="60.26 26.68 60.26 13.85 62.7 13.85 67.52 19.59 72.31 13.85 74.78 13.85 74.78 26.68 72.62 26.68 72.62 16.84 67.52 22.92 62.4 16.86 62.4 26.68 60.26 26.68"/><path class="cls-2" d="M82.17,26.68V13.85h9.92a2.41,2.41,0,0,1,2.4,2.4V18.8a2.45,2.45,0,0,1,0,.48,2,2,0,0,1-.13.41,4.73,4.73,0,0,1,.5.89,2.12,2.12,0,0,1,.19.88v2.82a2.39,2.39,0,0,1-2.41,2.4ZM85,19.07h6.73c.3,0,.48,0,.54-.1a.94.94,0,0,0,.09-.54v-1.8a.94.94,0,0,0-.09-.54.94.94,0,0,0-.54-.09H85a1,1,0,0,0-.55.09.91.91,0,0,0-.1.54v1.8a.91.91,0,0,0,.1.54c.07.07.25.1.55.1m0,5.46h7.25a1,1,0,0,0,.55-.09.94.94,0,0,0,.09-.54v-2c0-.3,0-.47-.09-.53a1,1,0,0,0-.55-.09H85a1,1,0,0,0-.55.09.87.87,0,0,0-.1.53v2a.91.91,0,0,0,.1.54,1,1,0,0,0,.55.09"/><polygon class="cls-2" points="111.86 26.68 111.86 13.85 114.3 13.85 122.54 23.65 122.54 13.85 124.7 13.85 124.7 26.68 122.25 26.68 114 16.86 114 26.68 111.86 26.68"/><polygon class="cls-2" points="126.71 26.68 126.71 13.85 128.87 13.85 128.87 19.18 132.15 19.18 136.63 13.85 139.03 13.85 139.03 14.36 134.07 20.26 139.03 26.17 139.03 26.68 136.63 26.68 132.15 21.35 128.87 21.35 128.87 26.68 126.71 26.68"/><path class="cls-2" d="M16.2,44.55v2.11H15a3,3,0,0,1-2.17-1,3.15,3.15,0,0,1-2.49,1H4a3.88,3.88,0,0,1-4-4V39.93H2.11V42.7A1.76,1.76,0,0,0,4,44.55h6.43c1.08,0,1.41-.68,1.41-1.5V33.89h2.11v9.16c0,.82.33,1.5,1.41,1.5ZM8.64,39.93H5V38.85h.65a1.59,1.59,0,0,1-.44-1.12,1.51,1.51,0,0,1,1.63-1.62c1,0,1.65.63,1.74,1.82h-1c-.07-.48-.35-.73-.73-.73a.57.57,0,0,0-.63.64,1.19,1.19,0,0,0,.64,1h1.8Z"/><rect class="cls-2" x="15.92" y="44.56" width="3.85" height="2.11"/><rect class="cls-2" x="19.41" y="44.56" width="3.85" height="2.11"/><rect class="cls-2" x="22.89" y="44.56" width="3.85" height="2.11"/><rect class="cls-2" x="26.38" y="44.56" width="3.85" height="2.11"/><rect class="cls-2" x="29.86" y="44.56" width="3.85" height="2.11"/><path class="cls-2" d="M39.59,44.55v2.11h-.88a3,3,0,0,1-2.17-1,3.14,3.14,0,0,1-2.48,1h-.6l-.92-.33V44.9l.92-.35h.62c1.1,0,1.4-.67,1.4-1.5V38h2.11v5.06c0,.83.33,1.5,1.41,1.5Zm-4.53-9.22a1.28,1.28,0,1,1,1.28,1.28,1.29,1.29,0,0,1-1.28-1.28"/><rect class="cls-2" x="39.22" y="44.56" width="3.85" height="2.11"/><rect class="cls-2" x="42.71" y="44.56" width="3.85" height="2.11"/><rect class="cls-2" x="46.19" y="44.56" width="3.85" height="2.11"/><rect class="cls-2" x="49.68" y="44.56" width="3.85" height="2.11"/><rect class="cls-2" x="53.16" y="44.56" width="3.85" height="2.11"/><path class="cls-2" d="M56.54,44.55H58.3a.76.76,0,0,0,.77-.82V38h2.11v6.49A2.16,2.16,0,0,1,59,46.66H56.54Z"/><path class="cls-2" d="M71.29,45.87A1.35,1.35,0,0,0,70,47.29V51.4H67.85V47.29a3.48,3.48,0,0,1,2.74-3.49l0-2.42a4.16,4.16,0,0,1,8.31,0v1.49c0,3-1.84,4.31-4.06,4.31a5.09,5.09,0,0,1-3.57-1.31M76.75,43V41.38a2,2,0,1,0-4,0V44.3a2.36,2.36,0,0,0,2,.69,1.87,1.87,0,0,0,2-2"/><path class="cls-2" d="M83.59,33.89v9.84a.76.76,0,0,0,.77.82h1v2.11H83.69a2.18,2.18,0,0,1-2.21-2.2V33.89Z"/><rect class="cls-2" x="85.02" y="44.56" width="3.85" height="2.11"/><rect class="cls-2" x="88.51" y="44.56" width="3.85" height="2.11"/><rect class="cls-2" x="92" y="44.56" width="3.85" height="2.11"/><rect class="cls-2" x="95.48" y="44.56" width="3.85" height="2.11"/><path class="cls-2" d="M97.79,44.88l.92-.33v2.11l-.92-.33Zm13.93-.33v2.11h-2.3v.54c0,2.45-1.21,4.2-4,4.2-2.65,0-4-2-4-4.53v-.21H98.73V44.55h2.64v-2.8a4.19,4.19,0,0,1,4.18-4.46c2.52,0,4.2,1.92,4.2,4.84a4.55,4.55,0,0,1-.66,2.42Zm-8.41,0h1.91a2.37,2.37,0,0,0,2.61-2.42c0-1.87-.9-2.88-2.26-2.88a2.43,2.43,0,0,0-2.26,2.7Zm4.17,2.32v-.76a4.75,4.75,0,0,1-2.26.55h-1.91v.21c0,1.52.65,2.58,2.1,2.58s2.07-1.06,2.07-2.58"/><rect class="cls-2" x="110.85" y="44.56" width="3.85" height="2.11"/><rect class="cls-2" x="114.34" y="44.56" width="3.85" height="2.11"/><rect class="cls-2" x="117.82" y="44.56" width="3.85" height="2.11"/><rect class="cls-2" x="121.31" y="44.56" width="3.85" height="2.11"/><path class="cls-2" d="M124,46.33V44.88l.92-.33v2.11Zm15-8.88V43.2a3.48,3.48,0,0,1-3.47,3.46,3.32,3.32,0,0,1-2.53-1,3.5,3.5,0,0,1-2.53,1,3.22,3.22,0,0,1-2.38-1,3.22,3.22,0,0,1-2.34.95H125V44.55h.88a1.21,1.21,0,0,0,1.25-1.24v-4h2.09v4a1.21,1.21,0,0,0,1.37,1.28A1.27,1.27,0,0,0,132,43.31v-4h2.11v4c0,.77.53,1.24,1.46,1.24a1.33,1.33,0,0,0,1.34-1.35V37.45Z"/><path class="cls-2" d="M58.06,49.46a1.28,1.28,0,0,1,2.55,0,1.28,1.28,0,1,1-2.55,0"/><path class="cls-2" d="M52.85,13.83H50.76a1.17,1.17,0,0,0-1.1.78L45.38,26.68h2.14l1.12-3.15H55l1.11,3.16h2.15s-3.3-9.31-4.29-12.08a1.15,1.15,0,0,0-1.09-.77m-.46,2.41,1.8,5.11H49.41l1.82-5.11Z"/><path class="cls-2" d="M104.46,13.83h-2.09a1.15,1.15,0,0,0-1.09.78L97,26.68h2.14l1.12-3.15h6.33l1.11,3.16h2.15s-3.3-9.31-4.28-12.08a1.18,1.18,0,0,0-1.1-.77M104,16.24l1.81,5.11H101l1.82-5.11Z"/><path class="cls-2" d="M22.78,13.83H20.7a1.16,1.16,0,0,0-1.1.78L15.31,26.68h2.15l1.12-3.15H24.9L26,26.69h2.15s-3.31-9.31-4.29-12.08a1.17,1.17,0,0,0-1.1-.77m-.46,2.41,1.81,5.11H19.35l1.82-5.11Z"/></g></g></svg>